<svg width="30" height="30" viewBox="0 0 30 30" fill="none" xmlns="http://www.w3.org/2000/svg">
<path d="M14.9785 3.48871C10.564 3.48871 6.98242 6.89758 6.98242 11.0961C6.98242 15.927 12.3131 23.5827 14.2705 26.2269C14.3517 26.3385 14.4582 26.4294 14.5813 26.492C14.7043 26.5546 14.8404 26.5873 14.9785 26.5873C15.1165 26.5873 15.2526 26.5546 15.3757 26.492C15.4987 26.4294 15.6052 26.3385 15.6865 26.2269C17.6438 23.5838 22.9745 15.9309 22.9745 11.0961C22.9745 6.89758 19.393 3.48871 14.9785 3.48871Z" stroke="#03F4F4" stroke-width="1.7769" stroke-linecap="round" stroke-linejoin="round"/>
<path d="M14.9783 14.1501C16.4504 14.1501 17.6437 12.9568 17.6437 11.4847C17.6437 10.0127 16.4504 8.8194 14.9783 8.8194C13.5063 8.8194 12.313 10.0127 12.313 11.4847C12.313 12.9568 13.5063 14.1501 14.9783 14.1501Z" stroke="#03F4F4" stroke-width="1.7769" stroke-linecap="round" stroke-linejoin="round"/>
</svg>
