<svg width="29" height="30" viewBox="0 0 29 30" fill="none" xmlns="http://www.w3.org/2000/svg">
<path fill-rule="evenodd" clip-rule="evenodd" d="M6.82518 3.24357C8.26684 1.81021 10.6408 2.0649 11.8479 3.67832L13.3429 5.67319C14.3261 6.98572 14.2384 8.81949 13.0716 9.97921L12.7896 10.2611C12.7577 10.3795 12.7544 10.5038 12.7802 10.6236C12.8548 11.1069 13.2587 12.1304 14.9504 13.8126C16.642 15.4947 17.6726 15.8975 18.163 15.9733C18.2866 15.9981 18.4142 15.9945 18.5361 15.9626L19.0195 15.4817C20.0572 14.4511 21.6493 14.258 22.9334 14.9557L25.196 16.1877C27.1352 17.2396 27.6244 19.8742 26.037 21.4533L24.3537 23.1259C23.823 23.6531 23.1099 24.0925 22.2404 24.1743C20.0963 24.3745 15.1008 24.1186 9.84947 18.8981C4.94878 14.0246 4.0082 9.77427 3.88856 7.6799C3.82933 6.62087 4.32923 5.72531 4.96655 5.09273L6.82518 3.24357ZM10.4264 4.74328C9.82578 3.9413 8.70751 3.87733 8.07731 4.50399L6.21748 6.35196C5.82657 6.74051 5.6394 7.16934 5.66309 7.57921C5.75786 9.24357 6.516 13.0781 11.1028 17.6388C15.9146 22.4223 20.3581 22.5656 22.0757 22.4045C22.4264 22.3725 22.7746 22.1901 23.1004 21.8667L24.7825 20.1928C25.4672 19.5129 25.3168 18.2738 24.3478 17.7478L22.0852 16.517C21.4597 16.1782 20.7276 16.2896 20.2728 16.7421L19.7338 17.2787L19.1059 16.6485C19.7338 17.2787 19.7326 17.2799 19.7314 17.2799L19.7302 17.2823L19.7267 17.2858L19.7184 17.2929L19.7006 17.3095C19.6506 17.3559 19.5967 17.3979 19.5395 17.4351C19.4447 17.4979 19.3192 17.5678 19.1616 17.6258C18.8418 17.7455 18.4177 17.8094 17.8941 17.7289C16.867 17.5713 15.5059 16.8712 13.697 15.073C11.8893 13.2748 11.1833 11.922 11.0246 10.8961C10.9429 10.3725 11.008 9.94841 11.1288 9.62857C11.1953 9.44859 11.2905 9.28057 11.4108 9.13104L11.4487 9.08958L11.4653 9.07181L11.4724 9.0647L11.4759 9.06114L11.4783 9.05878L11.8195 8.71998C12.3265 8.21416 12.3975 7.37664 11.9201 6.73814L10.4264 4.74328Z" fill="#03F4F4"/>
</svg>
